<?xml version="1.0" standalone="no"?><!DOCTYPE svg PUBLIC "-//W3C//DTD SVG 1.1//EN" "http://www.w3.org/Graphics/SVG/1.1/DTD/svg11.dtd"><svg t="1490542699868" class="icon" style="" viewBox="0 0 1024 1024" version="1.1" xmlns="http://www.w3.org/2000/svg" p-id="2471" xmlns:xlink="http://www.w3.org/1999/xlink" width="200" height="200"><defs><style type="text/css"></style></defs><path d="M512 0C229.266713 0 0.051164 229.215549 0.051164 511.948836s229.215549 511.948836 511.948836 511.948836 511.948836-229.215549 511.948836-511.948836S794.733287 0 512 0L512 0zM512 831.929649c-35.200959 0-63.955231-28.754272-63.955231-63.955231 0-35.200959 28.754272-63.955231 63.955231-63.955231s63.955231 28.754272 63.955231 63.955231C575.955231 803.175377 547.200959 831.929649 512 831.929649L512 831.929649zM575.955231 521.158389c0 30.186869-28.754272 54.848006-63.955231 54.848006s-63.955231-24.661137-63.955231-54.848006l0-274.240032c0-30.186869 28.754272-54.848006 63.955231-54.848006s63.955231 24.661137 63.955231 54.848006L575.955231 521.158389 575.955231 521.158389z" p-id="2472"></path></svg>